<?xml version="1.0" encoding="UTF-8"?>
<svg width="180px" height="180px" viewBox="0 0 180 180" version="1.1" xmlns="http://www.w3.org/2000/svg" xmlns:xlink="http://www.w3.org/1999/xlink">
    <title>Tracer Icon Blue Copy 2</title>
    <g id="Page-5" stroke="none" stroke-width="1" fill="none" fill-rule="evenodd">
        <g id="180px-facebook" transform="translate(-816, -192)">
            <g id="Tracer-Icon-Blue-Copy-2" transform="translate(816, 192)">
                <circle id="Oval" stroke="#979797" fill="#2C59FB" cx="90" cy="90" r="89.5"></circle>
                <path d="M132.934398,36 C145.132226,36 154,46.0235855 154,57.2614344 C154,68.3928003 144.889327,78.5228689 132.934398,78.5228689 L90.8070522,78.5228689 C86.7182671,78.5228689 83.7169387,81.555834 83.7169387,85.6100137 L83.7169387,141.762007 C83.7169387,145.628803 86.817164,148.82571 90.8070522,148.82571 C94.8115217,148.82571 97.8971657,145.649288 97.8971657,141.762007 L97.8971657,99.7843033 C97.8971657,95.8701813 101.071518,92.6971585 104.987279,92.6971585 C108.903041,92.6971585 112.077393,95.8701813 112.077393,99.7843033 L112.077393,141.762007 C112.077393,153.385748 102.737904,163 90.8070522,163 C78.8851634,163 69.5367118,153.360011 69.5367118,141.762007 L69.5367118,85.6100137 C69.5367118,73.7619802 78.851922,64.3485793 90.8070522,64.3485793 L132.934398,64.3485793 C136.701283,64.3485793 139.819773,60.8811608 139.819773,57.2614344 C139.819773,53.4903691 136.886068,50.1742896 132.944462,50.1742825 C132.922397,50.1743138 132.901068,50.1743441 132.88034,50.1743735 L132.234866,50.1752893 C132.211037,50.1753231 132.186324,50.1753582 132.160595,50.1753947 L131.42446,50.1764392 C131.37788,50.1765052 131.329338,50.1765741 131.2787,50.176646 L130.76272,50.1773781 C130.698292,50.1774695 130.631363,50.1775644 130.561798,50.1776631 L130.111706,50.1783018 C130.03106,50.1784162 129.947509,50.1785347 129.860918,50.1786576 L129.303813,50.179448 C129.193491,50.1796046 129.086232,50.1797568 128.981833,50.1799049 L128.388097,50.1807473 C128.29431,50.1808804 128.20297,50.18101 128.113872,50.1811364 L127.604537,50.1818591 C127.523583,50.1819739 127.444459,50.1820862 127.366959,50.1821962 L126.919809,50.1828306 C126.847984,50.1829325 126.777373,50.1830327 126.707768,50.1831315 L126.102973,50.1839896 C126.037561,50.1840824 125.972539,50.1841747 125.907702,50.1842666 L125.323592,50.1850954 C125.25801,50.1851885 125.191995,50.1852821 125.125342,50.1853767 L124.50267,50.1862602 C124.430334,50.1863628 124.356743,50.1864672 124.281691,50.1865737 L123.812195,50.1872399 C123.730475,50.1873558 123.646881,50.1874744 123.56121,50.187596 L123.020592,50.188363 C122.167315,50.1895737 121.112354,50.1910706 119.70574,50.1930663 C114.891659,50.1998968 111.828153,50.2042435 109.114762,50.2080934 L108.442898,50.2090467 C107.887739,50.2098344 107.34271,50.2106077 106.795149,50.2113846 L106.13605,50.2123198 C105.584436,50.2131025 105.025225,50.2138959 104.445752,50.2147181 L103.739849,50.2157197 C100.631768,50.2201296 96.838856,50.2255112 90.580551,50.2343908 L89.8692787,50.2354 C83.0974515,50.2450083 79.3075785,50.2503856 76.0288977,50.2550376 L75.3570336,50.2559908 C74.8018745,50.2567785 74.2568459,50.2575518 73.7092848,50.2583288 L73.0501853,50.2592639 C72.0572811,50.2606727 71.0397595,50.2621164 69.923768,50.2636999 L69.1643751,50.2647773 C67.0961034,50.2677119 64.6647495,50.2711617 61.4553623,50.2757153 C60.5176195,50.2770459 59.7361671,50.2781546 59.0665697,50.2791047 L58.4326115,50.2800042 C58.1326292,50.2804298 57.8569076,50.280821 57.5998923,50.2811857 L56.8794111,50.282208 C56.8043588,50.2823144 56.7307678,50.2824189 56.6584324,50.2825215 L56.2378413,50.2831182 C56.1697054,50.2832149 56.1024137,50.2833104 56.0357604,50.283405 L55.4475643,50.2842395 C55.3828902,50.2843313 55.3182373,50.284423 55.2534001,50.284515 L54.6593303,50.2853579 C54.5915349,50.2854541 54.5229379,50.2855515 54.4533336,50.2856502 L53.7941428,50.2865855 C53.7166431,50.2866955 53.6375189,50.2868077 53.5565645,50.2869226 L53.0472301,50.2876453 C52.6908379,50.2881509 52.2985795,50.2887075 51.8572887,50.2893336 L51.5887603,50.2897146 C51.5044689,50.2898342 51.4252131,50.2899467 51.3504455,50.2900528 L50.7839414,50.2908566 C50.7311772,50.2909314 50.6812591,50.2910022 50.6336399,50.2910698 L50.0233481,50.2919357 C49.9850338,50.2919901 49.9462817,50.2920451 49.9065443,50.2921015 L49.3473747,50.2928948 L49.1681733,50.2931491 L48.4596948,50.2941543 C48.4320603,50.2941935 48.4113344,50.2942229 48.3946789,50.2942466 L48.2065761,50.2945063 C44.1875728,50.2945063 41.180227,53.4253862 41.180227,57.2614344 C41.180227,61.1398537 44.2270299,64.3485793 48.2065761,64.3485793 C52.1223376,64.3485793 55.2966896,67.5216021 55.2966896,71.4357241 C55.2966896,75.3498461 52.1223376,78.5228689 48.2065761,78.5228689 C36.2251866,78.5228689 27,68.8074088 27,57.2614344 C27,45.7232255 36.2241063,36.1202167 48.196512,36.1202238 L48.3745508,36.1199712 L48.4395667,36.119879 L49.1480452,36.1188737 C49.2113185,36.118784 49.2708698,36.1186995 49.3272465,36.1186195 L49.8864162,36.1178261 C49.9261535,36.1177697 49.9649057,36.1177147 50.00322,36.1176604 L50.6135118,36.1167945 C50.661131,36.1167269 50.711049,36.1166561 50.7638133,36.1165812 L51.3303173,36.1157774 C51.4798525,36.1155652 51.6473407,36.1153276 51.8371606,36.1150583 L52.1591408,36.1146014 C52.4723389,36.1141571 52.7598078,36.1137492 53.027102,36.1133699 L53.7740146,36.1123102 C53.8515143,36.1122002 53.9273896,36.1120925 54.001846,36.1119869 L54.4332055,36.1113749 C54.5028098,36.1112761 54.5714068,36.1111788 54.6392021,36.1110826 L55.2332719,36.1102397 C55.2981092,36.1101477 55.362762,36.110056 55.4274362,36.1099642 L56.0156323,36.1091296 C56.0822856,36.1090351 56.1495773,36.1089396 56.2177132,36.1088429 L56.6383042,36.1082461 C56.7106397,36.1081435 56.7842307,36.1080391 56.859283,36.1079326 L57.5797642,36.1069103 C57.8367795,36.1065457 58.112501,36.1061545 58.4124834,36.1057288 L59.0464416,36.1048293 C59.716039,36.1038793 60.4974913,36.1027705 61.4352342,36.10144 C66.851075,36.0937557 70.0513446,36.0892149 73.0300571,36.0849886 L73.6891567,36.0840534 C74.2367178,36.0832765 74.7817463,36.0825032 75.3369055,36.0817155 L76.0087696,36.0807622 C79.4005083,36.0759498 83.3393017,36.0703612 90.5604229,36.0601155 L91.2716952,36.0591063 C96.6424547,36.051486 100.137526,36.0465269 102.989504,36.0424804 L103.719721,36.0414443 C104.556512,36.040257 105.343663,36.0391402 106.115921,36.0380445 L106.775021,36.0371093 C107.322582,36.0363324 107.867611,36.0355591 108.42277,36.0347714 L109.094634,36.0338181 C111.808025,36.0299682 114.871531,36.0256215 119.685612,36.018791 C121.092226,36.0167952 122.147187,36.0152984 123.000464,36.0140877 L123.541082,36.0133206 C123.626753,36.0131991 123.710347,36.0130805 123.792067,36.0129645 L124.261563,36.0122984 C124.336615,36.0121919 124.410206,36.0120875 124.482542,36.0119848 L125.105213,36.0111014 C125.171867,36.0110068 125.237882,36.0109131 125.303464,36.0108201 L125.887574,36.0099913 C125.952411,36.0098993 126.017433,36.009807 126.082845,36.0097142 L126.68764,36.0088561 C126.757245,36.0087574 126.827856,36.0086572 126.899681,36.0085553 L127.346831,36.0079208 C127.424331,36.0078109 127.503455,36.0076986 127.584409,36.0075837 L128.093744,36.0068611 C128.182842,36.0067346 128.274182,36.006605 128.367969,36.006472 L128.961705,36.0056295 L129.283685,36.0051727 L129.840793,36.0043822 C129.927386,36.0042594 130.010939,36.0041408 130.091588,36.0040264 L130.541717,36.0033878 C130.611291,36.0032891 130.678231,36.0031941 130.742673,36.0031027 L131.258843,36.0023704 C131.309512,36.0022986 131.358087,36.0022297 131.404705,36.0021635 L132.142298,36 C132.168135,36 132.192962,36 132.216912,36 L132.869303,36 L132.934398,36 Z" id="Correct-T" fill="#FFFFFF" fill-rule="nonzero"></path>
            </g>
        </g>
    </g>
</svg>