<?xml version="1.0" encoding="UTF-8"?>
<svg width="145px" height="145px" viewBox="0 0 145 145" version="1.1" xmlns="http://www.w3.org/2000/svg" xmlns:xlink="http://www.w3.org/1999/xlink">
    <title>Tracer Logo Blue Copy 3</title>
    <g id="Page-5" stroke="none" stroke-width="1" fill="none" fill-rule="evenodd">
        <g id="Artboard-Copy-11" transform="translate(-25, -30)">
            <g id="Tracer-Logo-Blue-Copy-3" transform="translate(25, 30)">
                <path d="M110,0 C120.002241,0.333333333 128.300663,3.79730066 134.895264,10.391902 C141.489866,16.9865033 144.858111,25.1892027 145,35 L145,110 C144.676062,119.987868 141.274016,128.221879 134.793862,134.702033 C128.313708,141.182187 120.049087,144.614843 110,145 L35,145 C25.2188786,144.89141 16.9840917,141.492889 10.2956393,134.804437 C3.60718692,128.115984 0.17530716,119.847839 0,110 L0,35 C0.284391616,25.0718277 3.71627138,16.8180576 10.2956393,10.2386897 C16.8750072,3.65932178 25.1097941,0.246425219 35,0" id="Path-69" fill="#2C59FB"></path>
                <path d="M111.121067,15 C122.303664,15 130.433369,24.193167 130.433369,34.5 C130.433369,44.7091717 122.080982,54 111.121067,54 L72.5,54 C68.7515264,54 66,56.7816947 66,60.5 L66,112 C66,115.546445 68.842192,118.4785 72.5,118.4785 C76.1711756,118.4785 79,115.565234 79,112 L79,73.5 C79,69.9101491 81.9101491,67 85.5,67 C89.0898509,67 92,69.9101491 92,73.5 L92,112 C92,122.660755 83.4378414,131.4785 72.5,131.4785 C61.5703756,131.4785 53,122.63715 53,112 L53,60.5 C53,49.6335341 61.5399008,41 72.5,41 L111.121067,41 C114.574432,41 117.433369,37.8198448 117.433369,34.5 C117.433369,31.041354 114.743838,28 111.130293,28 C111.110065,28.0000222 111.090511,28.0000499 111.071508,28.0000769 L110.479758,28.0009169 C110.457911,28.0009479 110.435256,28.00098 110.411668,28.0010135 L109.736802,28.0019714 C109.694098,28.0020321 109.649597,28.0020952 109.603173,28.0021611 L109.130139,28.0028326 C109.071073,28.0029164 109.009715,28.0030035 108.94594,28.003094 L108.533309,28.0036797 C108.459376,28.0037847 108.382778,28.0038934 108.303394,28.0040061 L107.792657,28.0047311 C107.691517,28.0048746 107.593186,28.0050142 107.497476,28.0051501 L106.953156,28.0059227 C106.867175,28.0060447 106.783438,28.0061636 106.701755,28.0062795 L106.234813,28.0069423 C106.160597,28.0070477 106.088058,28.0071507 106.017009,28.0072515 L105.607075,28.0078334 C105.541228,28.0079269 105.476494,28.0080187 105.412683,28.0081093 L104.858224,28.0088964 C104.798257,28.0089815 104.738647,28.0090661 104.679206,28.0091505 L104.143712,28.0099106 C104.083588,28.0099959 104.023068,28.0100818 103.961962,28.0101686 L103.391115,28.0109788 C103.3248,28.011073 103.257334,28.0111687 103.188529,28.0112664 L102.758109,28.0118774 C102.683191,28.0119837 102.606555,28.0120925 102.528013,28.012204 L102.032391,28.0129075 C101.250133,28.0140179 100.282977,28.0153907 98.9934361,28.0172211 C94.5800336,28.0234857 91.7715046,28.0274723 89.2839505,28.0310033 L88.6680059,28.0318776 C88.1590529,28.0326 87.6593874,28.0333093 87.1574,28.0340218 L86.5531576,28.0348795 C86.0474553,28.0355973 85.5347873,28.036325 85.0035444,28.0370791 L84.3563939,28.0379977 C81.5070002,28.0420423 78.0297739,28.046978 72.2923506,28.055122 L71.6402778,28.0560476 C65.4320729,28.0648599 61.9576329,28.0697917 58.9518383,28.0740583 L58.3358937,28.0749326 C57.8269407,28.075655 57.3272752,28.0763642 56.8252878,28.0770768 L56.2210454,28.0779345 C55.3107812,28.0792266 54.3779483,28.0805507 53.3548414,28.0820029 L52.6586531,28.0829911 C50.7625246,28.0856826 48.5335334,28.0888465 45.591265,28.0930229 C44.731571,28.0942432 44.0151593,28.0952601 43.4012928,28.0961315 L42.8200993,28.0969565 C42.5450846,28.0973468 42.2923114,28.0977056 42.0566877,28.0980401 L41.3961725,28.0989777 C41.3273668,28.0990753 41.2599008,28.0991711 41.1935859,28.0992652 L40.8080008,28.0998126 C40.7455359,28.0999012 40.6838449,28.0999888 40.6227392,28.1000755 L40.0834989,28.1008409 C40.0242076,28.1009251 39.9649359,28.1010092 39.905495,28.1010936 L39.36087,28.1018667 C39.2987172,28.1019549 39.2358296,28.1020442 39.1720185,28.1021348 L38.5676924,28.1029926 C38.4966431,28.1030934 38.4241044,28.1031964 38.3498879,28.1033017 L37.8829457,28.1039645 C37.5562162,28.1044283 37.1966056,28.1049388 36.7920437,28.105513 L36.545865,28.1058624 C36.4685892,28.1059721 36.3959299,28.1060753 36.3273852,28.1061726 L35.8080316,28.1069098 C35.7596589,28.1069784 35.7138956,28.1070434 35.6702398,28.1071054 L35.1107428,28.1078995 C35.0756174,28.1079494 35.0400906,28.1079998 35.0036606,28.1080515 L34.4910309,28.1087792 L34.3267446,28.1090124 L33.6772331,28.1099343 C33.6518986,28.1099703 33.6328977,28.1099973 33.6176285,28.1100189 L33.4451815,28.1102572 C29.7606818,28.1102572 27.0036388,30.9817547 27.0036388,34.5 C27.0036388,38.057106 29.7968548,41 33.4451815,41 C37.0350324,41 39.9451815,43.9101491 39.9451815,47.5 C39.9451815,51.0898509 37.0350324,54 33.4451815,54 C22.4610087,54 14.0036388,45.0894313 14.0036388,34.5 C14.0036388,23.9176908 22.4600184,15.1102572 33.4359551,15.1102637 L33.5991756,15.110032 L33.6587802,15.1099474 L34.3082917,15.1090255 C34.3662988,15.1089431 34.4208936,15.1088656 34.4725781,15.1087923 L34.9852078,15.1080646 C35.0216378,15.1080129 35.0571646,15.1079625 35.09229,15.1079126 L35.6517869,15.1071185 C35.6954427,15.1070565 35.741206,15.1069915 35.7895787,15.1069229 L36.3089324,15.1061857 C36.4460217,15.1059911 36.5995697,15.1057731 36.7735908,15.1055261 L37.0687725,15.1051071 C37.3559029,15.1046995 37.6194457,15.1043255 37.8644928,15.1039776 L38.5492396,15.1030057 C38.620289,15.1029048 38.689849,15.1028061 38.7581085,15.1027092 L39.1535656,15.1021478 C39.2173767,15.1020573 39.2802644,15.101968 39.3424171,15.1018798 L39.8870422,15.1011067 C39.946483,15.1010223 40.0057548,15.1009382 40.065046,15.100854 L40.6042863,15.1000886 C40.665392,15.1000019 40.727083,15.0999143 40.7895479,15.0998257 L41.175133,15.0992783 C41.2414479,15.0991842 41.3089139,15.0990884 41.3777196,15.0989908 L42.0382348,15.0980532 C42.2738586,15.0977187 42.5266317,15.0973599 42.8016464,15.0969696 L43.3828399,15.0961446 C43.9967064,15.0952732 44.7131181,15.0942563 45.5728122,15.093036 C50.5378901,15.0859883 53.4717997,15.0818238 56.2025926,15.0779476 L56.8068349,15.0770899 C57.3088223,15.0763773 57.8084879,15.0756681 58.3174408,15.0749457 L58.9333854,15.0740713 C62.0428281,15.0696576 65.6537939,15.0645321 72.2738977,15.0551351 L72.9259705,15.0542095 C77.8497192,15.0472205 81.053894,15.0426724 83.6685007,15.038961 L84.3379411,15.0380108 C85.1050855,15.0369219 85.8267214,15.0358976 86.5347048,15.0348926 L87.1389471,15.0340349 C87.6409345,15.0333224 88.1406001,15.0326131 88.649553,15.0318907 L89.2654976,15.0310164 C91.7530518,15.0274854 94.5615807,15.0234988 98.9749833,15.0172342 C100.264524,15.0154038 101.23168,15.014031 102.013938,15.0129206 L102.509561,15.0122171 C102.588102,15.0121056 102.664738,15.0119968 102.739657,15.0118905 L103.170076,15.0112795 C103.238882,15.0111818 103.306348,15.0110861 103.372662,15.0109919 L103.943509,15.0101816 C104.004615,15.0100949 104.065135,15.010009 104.125259,15.0099237 L104.660753,15.0091636 C104.720194,15.0090792 104.779804,15.0089946 104.839772,15.0089094 L105.39423,15.0081224 C105.458041,15.0080318 105.522776,15.00794 105.588622,15.0078465 L105.998556,15.0072646 C106.069605,15.0071638 106.142144,15.0070608 106.21636,15.0069554 L106.683303,15.0062926 C106.764985,15.0061767 106.848722,15.0060578 106.934704,15.0059358 L107.479023,15.0051632 L107.774205,15.0047442 L108.284944,15.0040192 C108.36433,15.0039065 108.440929,15.0037978 108.514866,15.0036928 L108.92753,15.0031071 C108.991313,15.0030166 109.052682,15.0029295 109.11176,15.0028456 L109.584969,15.002174 C109.631421,15.0021081 109.675953,15.0020449 109.718691,15.0019843 L110.394894,15 C110.418581,15 110.441341,15 110.463298,15 L111.061389,15 L111.121067,15 Z" id="Correct-T" fill="#FFFFFF" fill-rule="nonzero"></path>
            </g>
        </g>
    </g>
</svg>